<svg xmlns="http://www.w3.org/2000/svg" viewBox="0 0 533.5 544.3">
  <path fill="#4285F4" d="M533.5 278.4c0-17.8-1.6-35-4.7-51.6H272v97.8h146.9c-6.3 34-25.5 62.9-54.6 82.2v68.2h88.1c51.6-47.6 81.1-117.8 81.1-196.6z"/>
  <path fill="#34A853" d="M272 544.3c73.6 0 135.4-24.4 180.6-66.4l-88.1-68.2c-24.5 16.5-56 26.2-92.5 26.2-71 0-131.1-47.9-152.5-112.3H29.9v70.7C75.3 489.8 168.8 544.3 272 544.3z"/>
  <path fill="#FBBC05" d="M119.5 324.2c-10.9-32.8-10.9-68.1 0-100.9V152.6H29.9c-39.4 76.9-39.4 168.4 0 245.3l89.6-73.7z"/>
  <path fill="#EA4335" d="M272 107.7c39.9-.6 78.3 14.6 107.5 41.8l80.6-80.6C407.3 20.3 344.7-1.6 272 0 168.8 0 75.3 54.5 29.9 132.6l89.6 70.9C140.9 155.6 201 107.7 272 107.7z"/>
</svg>
